<svg width="264" height="42" viewBox="0 0 264 42" fill="none" xmlns="http://www.w3.org/2000/svg">
<path opacity="0.5" d="M40.0652 2.25671L30.2601 36.9917C30.2102 37.1494 30.0108 37.1967 29.8945 37.0863L23.3301 30.8583L28.2492 13.4514C28.2991 13.2937 28.1495 13.1518 27.9833 13.1991L9.63617 17.8662L3.10498 11.6697C2.98865 11.5593 3.03851 11.3701 3.20469 11.3228L39.7993 2.00444C39.9655 1.97291 40.115 2.11481 40.0652 2.25671Z" fill="#C1FA77"/>
<path opacity="0.5" d="M23.3297 30.858L20.8037 39.8452C20.7538 40.0029 20.5544 40.0502 20.4381 39.9398L0.0634003 20.6251C-0.0529313 20.5147 -0.00307518 20.3255 0.163113 20.2782L9.63583 17.8658L23.3297 30.858Z" fill="#C1FA77"/>
<path d="M28.2484 13.4511L23.3292 30.858L9.63533 17.8659L27.9825 13.1988C28.1487 13.1515 28.2982 13.2934 28.2484 13.4511Z" fill="#C1FA77"/>
<path d="M65.8227 11.3104V29.5H62.0873V11.3104H65.8227ZM71.4194 11.3104V14.2462H56.578V11.3104H71.4194ZM76.0543 18.9311V29.5H72.4563V15.9828H75.8419L76.0543 18.9311ZM80.1269 15.8953L80.0645 19.2309C79.8896 19.2059 79.6772 19.1851 79.4274 19.1684C79.1858 19.1434 78.9651 19.1309 78.7652 19.1309C78.2572 19.1309 77.8158 19.1976 77.441 19.3308C77.0745 19.4558 76.7664 19.6432 76.5165 19.893C76.275 20.1429 76.0918 20.4469 75.9668 20.805C75.8502 21.1631 75.7836 21.5712 75.767 22.0293L75.0424 21.8044C75.0424 20.9299 75.1298 20.1262 75.3047 19.3933C75.4796 18.6521 75.7336 18.0066 76.0668 17.4569C76.4082 16.9072 76.8247 16.4825 77.3161 16.1826C77.8074 15.8828 78.3696 15.7329 79.0026 15.7329C79.2025 15.7329 79.4065 15.7496 79.6147 15.7829C79.823 15.8079 79.9937 15.8453 80.1269 15.8953ZM88.697 26.4517V20.4302C88.697 19.9971 88.6262 19.6265 88.4847 19.3183C88.3431 19.0019 88.1224 18.7562 87.8225 18.5813C87.531 18.4064 87.1521 18.3189 86.6857 18.3189C86.2859 18.3189 85.9403 18.3897 85.6488 18.5313C85.3573 18.6645 85.1324 18.8603 84.9742 19.1185C84.8159 19.3683 84.7368 19.664 84.7368 20.0054H81.1389C81.1389 19.4308 81.2721 18.8853 81.5386 18.3689C81.8052 17.8525 82.1924 17.3986 82.7005 17.0072C83.2085 16.6074 83.8123 16.2951 84.5119 16.0702C85.2199 15.8453 86.0111 15.7329 86.8856 15.7329C87.935 15.7329 88.8678 15.9078 89.684 16.2576C90.5002 16.6074 91.1415 17.1321 91.6079 17.8317C92.0826 18.5313 92.32 19.4058 92.32 20.4552V26.2394C92.32 26.9806 92.3658 27.5886 92.4574 28.0633C92.549 28.5297 92.6822 28.9378 92.8571 29.2876V29.5H89.2217C89.0468 29.1335 88.9136 28.6755 88.822 28.1258C88.7387 27.5678 88.697 27.0098 88.697 26.4517ZM89.1718 21.2672L89.1967 23.3036H87.1854C86.7107 23.3036 86.2984 23.3577 85.9486 23.466C85.5988 23.5742 85.3115 23.7283 85.0866 23.9282C84.8617 24.1198 84.6952 24.3446 84.5869 24.6028C84.4869 24.861 84.437 25.1442 84.437 25.4523C84.437 25.7605 84.5078 26.0395 84.6494 26.2893C84.7909 26.5309 84.995 26.7224 85.2615 26.864C85.528 26.9973 85.8403 27.0639 86.1985 27.0639C86.7398 27.0639 87.2104 26.9556 87.6102 26.7391C88.0099 26.5225 88.3181 26.256 88.5346 25.9395C88.7595 25.6231 88.8761 25.3232 88.8844 25.0401L89.8339 26.5642C89.7006 26.9057 89.5174 27.2596 89.2842 27.6261C89.0593 27.9925 88.772 28.3382 88.4222 28.663C88.0724 28.9795 87.6518 29.2418 87.1604 29.45C86.669 29.6499 86.086 29.7499 85.4114 29.7499C84.5536 29.7499 83.7749 29.5791 83.0753 29.2377C82.384 28.8879 81.8343 28.409 81.4262 27.801C81.0264 27.1847 80.8265 26.4851 80.8265 25.7022C80.8265 24.9943 80.9598 24.3654 81.2263 23.8158C81.4928 23.2661 81.8843 22.8038 82.4006 22.4291C82.9253 22.0459 83.5791 21.7586 84.362 21.5671C85.1449 21.3672 86.0527 21.2672 87.0855 21.2672H89.1718ZM98.6163 18.8686V29.5H95.0184V15.9828H98.3915L98.6163 18.8686ZM98.0916 22.2666H97.1172C97.1172 21.2672 97.2463 20.3677 97.5045 19.5682C97.7627 18.7603 98.125 18.0732 98.5914 17.5069C99.0578 16.9322 99.6116 16.495 100.253 16.1951C100.903 15.887 101.627 15.7329 102.427 15.7329C103.06 15.7329 103.638 15.8245 104.163 16.0077C104.688 16.191 105.138 16.4825 105.512 16.8822C105.896 17.282 106.187 17.8109 106.387 18.4688C106.595 19.1268 106.699 19.9305 106.699 20.8799V29.5H103.076V20.8675C103.076 20.2678 102.993 19.8014 102.826 19.4683C102.66 19.1351 102.414 18.9019 102.089 18.7687C101.773 18.6271 101.381 18.5563 100.915 18.5563C100.432 18.5563 100.011 18.6521 99.6533 18.8436C99.3035 19.0352 99.012 19.3017 98.7788 19.6432C98.5539 19.9763 98.3831 20.3677 98.2665 20.8175C98.1499 21.2672 98.0916 21.7503 98.0916 22.2666ZM116.743 25.7646C116.743 25.5065 116.668 25.2733 116.519 25.065C116.369 24.8568 116.09 24.6653 115.682 24.4904C115.282 24.3071 114.703 24.1406 113.945 23.9907C113.262 23.8407 112.625 23.6534 112.034 23.4285C111.451 23.1953 110.943 22.9163 110.51 22.5915C110.085 22.2666 109.752 21.8835 109.51 21.4421C109.269 20.9924 109.148 20.4802 109.148 19.9055C109.148 19.3392 109.269 18.8061 109.51 18.3064C109.76 17.8067 110.114 17.3653 110.572 16.9822C111.038 16.5907 111.605 16.2867 112.271 16.0702C112.946 15.8453 113.704 15.7329 114.545 15.7329C115.719 15.7329 116.727 15.9203 117.568 16.2951C118.417 16.6699 119.067 17.1862 119.517 17.8442C119.975 18.4938 120.204 19.2351 120.204 20.0679H116.606C116.606 19.7181 116.531 19.4058 116.381 19.1309C116.24 18.8478 116.015 18.6271 115.707 18.4688C115.407 18.3023 115.015 18.219 114.532 18.219C114.132 18.219 113.787 18.2898 113.495 18.4313C113.204 18.5646 112.979 18.7478 112.821 18.981C112.671 19.2059 112.596 19.4558 112.596 19.7306C112.596 19.9388 112.637 20.1262 112.721 20.2928C112.812 20.451 112.958 20.5968 113.158 20.73C113.358 20.8633 113.616 20.9882 113.933 21.1048C114.257 21.2131 114.657 21.313 115.132 21.4046C116.106 21.6045 116.977 21.8669 117.743 22.1917C118.509 22.5082 119.117 22.9413 119.567 23.4909C120.017 24.0323 120.241 24.7444 120.241 25.6272C120.241 26.2269 120.108 26.7766 119.842 27.2763C119.575 27.776 119.192 28.2132 118.692 28.588C118.193 28.9545 117.593 29.2418 116.893 29.45C116.202 29.6499 115.423 29.7499 114.557 29.7499C113.3 29.7499 112.234 29.525 111.359 29.0752C110.493 28.6255 109.835 28.055 109.385 27.3637C108.944 26.6641 108.723 25.9479 108.723 25.215H112.134C112.15 25.7063 112.275 26.1019 112.508 26.4018C112.75 26.7016 113.054 26.9181 113.42 27.0514C113.795 27.1847 114.199 27.2513 114.632 27.2513C115.099 27.2513 115.486 27.1888 115.794 27.0639C116.102 26.9306 116.335 26.7557 116.494 26.5392C116.66 26.3143 116.743 26.0561 116.743 25.7646ZM129.873 26.4517V20.4302C129.873 19.9971 129.803 19.6265 129.661 19.3183C129.519 19.0019 129.299 18.7562 128.999 18.5813C128.707 18.4064 128.328 18.3189 127.862 18.3189C127.462 18.3189 127.117 18.3897 126.825 18.5313C126.534 18.6645 126.309 18.8603 126.151 19.1185C125.992 19.3683 125.913 19.664 125.913 20.0054H122.315C122.315 19.4308 122.449 18.8853 122.715 18.3689C122.982 17.8525 123.369 17.3986 123.877 17.0072C124.385 16.6074 124.989 16.2951 125.688 16.0702C126.396 15.8453 127.187 15.7329 128.062 15.7329C129.111 15.7329 130.044 15.9078 130.86 16.2576C131.677 16.6074 132.318 17.1321 132.784 17.8317C133.259 18.5313 133.496 19.4058 133.496 20.4552V26.2394C133.496 26.9806 133.542 27.5886 133.634 28.0633C133.725 28.5297 133.859 28.9378 134.034 29.2876V29.5H130.398C130.223 29.1335 130.09 28.6755 129.998 28.1258C129.915 27.5678 129.873 27.0098 129.873 26.4517ZM130.348 21.2672L130.373 23.3036H128.362C127.887 23.3036 127.475 23.3577 127.125 23.466C126.775 23.5742 126.488 23.7283 126.263 23.9282C126.038 24.1198 125.872 24.3446 125.763 24.6028C125.663 24.861 125.613 25.1442 125.613 25.4523C125.613 25.7605 125.684 26.0395 125.826 26.2893C125.967 26.5309 126.171 26.7224 126.438 26.864C126.704 26.9973 127.017 27.0639 127.375 27.0639C127.916 27.0639 128.387 26.9556 128.787 26.7391C129.186 26.5225 129.494 26.256 129.711 25.9395C129.936 25.6231 130.052 25.3232 130.061 25.0401L131.01 26.5642C130.877 26.9057 130.694 27.2596 130.461 27.6261C130.236 27.9925 129.948 28.3382 129.599 28.663C129.249 28.9795 128.828 29.2418 128.337 29.45C127.845 29.6499 127.262 29.7499 126.588 29.7499C125.73 29.7499 124.951 29.5791 124.252 29.2377C123.56 28.8879 123.011 28.409 122.603 27.801C122.203 27.1847 122.003 26.4851 122.003 25.7022C122.003 24.9943 122.136 24.3654 122.403 23.8158C122.669 23.2661 123.061 22.8038 123.577 22.4291C124.102 22.0459 124.756 21.7586 125.538 21.5671C126.321 21.3672 127.229 21.2672 128.262 21.2672H130.348ZM141.854 26.939C142.295 26.939 142.687 26.8557 143.028 26.6891C143.37 26.5142 143.636 26.2727 143.828 25.9645C144.028 25.648 144.132 25.2774 144.14 24.8527H147.526C147.517 25.8021 147.263 26.6475 146.764 27.3887C146.264 28.1216 145.594 28.7005 144.752 29.1252C143.911 29.5416 142.97 29.7499 141.929 29.7499C140.88 29.7499 139.963 29.575 139.181 29.2252C138.406 28.8754 137.761 28.3923 137.244 27.776C136.728 27.1513 136.341 26.4268 136.082 25.6022C135.824 24.7694 135.695 23.8782 135.695 22.9288V22.5665C135.695 21.6087 135.824 20.7175 136.082 19.893C136.341 19.0602 136.728 18.3356 137.244 17.7193C137.761 17.0946 138.406 16.6074 139.181 16.2576C139.955 15.9078 140.863 15.7329 141.904 15.7329C143.012 15.7329 143.982 15.9453 144.815 16.37C145.656 16.7948 146.314 17.4028 146.789 18.194C147.272 18.9769 147.517 19.9055 147.526 20.9799H144.14C144.132 20.5301 144.036 20.122 143.853 19.7556C143.678 19.3891 143.42 19.0976 143.078 18.8811C142.745 18.6562 142.333 18.5438 141.842 18.5438C141.317 18.5438 140.888 18.6562 140.555 18.8811C140.222 19.0976 139.963 19.3975 139.78 19.7806C139.597 20.1554 139.468 20.5843 139.393 21.0673C139.326 21.5421 139.293 22.0418 139.293 22.5665V22.9288C139.293 23.4535 139.326 23.9573 139.393 24.4404C139.46 24.9235 139.585 25.3524 139.768 25.7272C139.959 26.1019 140.222 26.3976 140.555 26.6142C140.888 26.8307 141.321 26.939 141.854 26.939ZM156.233 15.9828V18.5313H148.363V15.9828H156.233ZM150.312 12.6472H153.91V25.4273C153.91 25.8188 153.96 26.1186 154.06 26.3268C154.168 26.535 154.326 26.6808 154.534 26.7641C154.742 26.839 155.005 26.8765 155.321 26.8765C155.546 26.8765 155.746 26.8682 155.921 26.8515C156.104 26.8265 156.258 26.8015 156.383 26.7766L156.396 29.425C156.088 29.525 155.754 29.6041 155.396 29.6624C155.038 29.7207 154.643 29.7499 154.209 29.7499C153.418 29.7499 152.727 29.6208 152.136 29.3626C151.553 29.0961 151.103 28.6713 150.786 28.0883C150.47 27.5053 150.312 26.7391 150.312 25.7896V12.6472ZM162.08 15.9828V29.5H158.47V15.9828H162.08ZM158.245 12.4598C158.245 11.9351 158.428 11.502 158.794 11.1605C159.161 10.819 159.652 10.6483 160.268 10.6483C160.876 10.6483 161.364 10.819 161.73 11.1605C162.105 11.502 162.292 11.9351 162.292 12.4598C162.292 12.9845 162.105 13.4176 161.73 13.759C161.364 14.1005 160.876 14.2712 160.268 14.2712C159.652 14.2712 159.161 14.1005 158.794 13.759C158.428 13.4176 158.245 12.9845 158.245 12.4598ZM164.479 22.8788V22.6164C164.479 21.6253 164.62 20.7134 164.903 19.8805C165.186 19.0393 165.599 18.3106 166.14 17.6943C166.681 17.078 167.348 16.5991 168.139 16.2576C168.93 15.9078 169.838 15.7329 170.862 15.7329C171.887 15.7329 172.799 15.9078 173.598 16.2576C174.398 16.5991 175.068 17.078 175.61 17.6943C176.159 18.3106 176.576 19.0393 176.859 19.8805C177.142 20.7134 177.284 21.6253 177.284 22.6164V22.8788C177.284 23.8616 177.142 24.7735 176.859 25.6147C176.576 26.4476 176.159 27.1763 175.61 27.801C175.068 28.4173 174.402 28.8962 173.611 29.2377C172.82 29.5791 171.912 29.7499 170.887 29.7499C169.863 29.7499 168.951 29.5791 168.151 29.2377C167.36 28.8962 166.69 28.4173 166.14 27.801C165.599 27.1763 165.186 26.4476 164.903 25.6147C164.62 24.7735 164.479 23.8616 164.479 22.8788ZM168.077 22.6164V22.8788C168.077 23.4451 168.126 23.974 168.226 24.4654C168.326 24.9568 168.485 25.3899 168.701 25.7646C168.926 26.1311 169.218 26.4184 169.576 26.6266C169.934 26.8349 170.371 26.939 170.887 26.939C171.387 26.939 171.816 26.8349 172.174 26.6266C172.532 26.4184 172.82 26.1311 173.036 25.7646C173.253 25.3899 173.411 24.9568 173.511 24.4654C173.619 23.974 173.673 23.4451 173.673 22.8788V22.6164C173.673 22.0668 173.619 21.5504 173.511 21.0673C173.411 20.576 173.249 20.1429 173.024 19.7681C172.807 19.385 172.52 19.0851 172.162 18.8686C171.804 18.6521 171.37 18.5438 170.862 18.5438C170.354 18.5438 169.921 18.6521 169.563 18.8686C169.213 19.0851 168.926 19.385 168.701 19.7681C168.485 20.1429 168.326 20.576 168.226 21.0673C168.126 21.5504 168.077 22.0668 168.077 22.6164ZM183.018 18.8686V29.5H179.42V15.9828H182.793L183.018 18.8686ZM182.493 22.2666H181.519C181.519 21.2672 181.648 20.3677 181.906 19.5682C182.164 18.7603 182.527 18.0732 182.993 17.5069C183.459 16.9322 184.013 16.495 184.654 16.1951C185.304 15.887 186.029 15.7329 186.828 15.7329C187.461 15.7329 188.04 15.8245 188.565 16.0077C189.089 16.191 189.539 16.4825 189.914 16.8822C190.297 17.282 190.589 17.8109 190.788 18.4688C190.997 19.1268 191.101 19.9305 191.101 20.8799V29.5H187.478V20.8675C187.478 20.2678 187.395 19.8014 187.228 19.4683C187.061 19.1351 186.816 18.9019 186.491 18.7687C186.174 18.6271 185.783 18.5563 185.317 18.5563C184.834 18.5563 184.413 18.6521 184.055 18.8436C183.705 19.0352 183.414 19.3017 183.18 19.6432C182.955 19.9763 182.785 20.3677 182.668 20.8175C182.552 21.2672 182.493 21.7503 182.493 22.2666ZM201.145 25.7646C201.145 25.5065 201.07 25.2733 200.92 25.065C200.77 24.8568 200.491 24.6653 200.083 24.4904C199.683 24.3071 199.105 24.1406 198.347 23.9907C197.664 23.8407 197.027 23.6534 196.435 23.4285C195.852 23.1953 195.344 22.9163 194.911 22.5915C194.486 22.2666 194.153 21.8835 193.912 21.4421C193.67 20.9924 193.549 20.4802 193.549 19.9055C193.549 19.3392 193.67 18.8061 193.912 18.3064C194.162 17.8067 194.516 17.3653 194.974 16.9822C195.44 16.5907 196.006 16.2867 196.673 16.0702C197.347 15.8453 198.105 15.7329 198.946 15.7329C200.121 15.7329 201.128 15.9203 201.97 16.2951C202.819 16.6699 203.469 17.1862 203.918 17.8442C204.377 18.4938 204.606 19.2351 204.606 20.0679H201.008C201.008 19.7181 200.933 19.4058 200.783 19.1309C200.641 18.8478 200.416 18.6271 200.108 18.4688C199.808 18.3023 199.417 18.219 198.934 18.219C198.534 18.219 198.188 18.2898 197.897 18.4313C197.605 18.5646 197.381 18.7478 197.222 18.981C197.072 19.2059 196.997 19.4558 196.997 19.7306C196.997 19.9388 197.039 20.1262 197.122 20.2928C197.214 20.451 197.36 20.5968 197.56 20.73C197.759 20.8633 198.018 20.9882 198.334 21.1048C198.659 21.2131 199.059 21.313 199.533 21.4046C200.508 21.6045 201.378 21.8669 202.144 22.1917C202.911 22.5082 203.519 22.9413 203.968 23.4909C204.418 24.0323 204.643 24.7444 204.643 25.6272C204.643 26.2269 204.51 26.7766 204.243 27.2763C203.977 27.776 203.594 28.2132 203.094 28.588C202.594 28.9545 201.995 29.2418 201.295 29.45C200.604 29.6499 199.825 29.7499 198.959 29.7499C197.701 29.7499 196.635 29.525 195.761 29.0752C194.894 28.6255 194.236 28.055 193.787 27.3637C193.345 26.6641 193.125 25.9479 193.125 25.215H196.535C196.552 25.7063 196.677 26.1019 196.91 26.4018C197.151 26.7016 197.455 26.9181 197.822 27.0514C198.197 27.1847 198.601 27.2513 199.034 27.2513C199.5 27.2513 199.887 27.1888 200.196 27.0639C200.504 26.9306 200.737 26.7557 200.895 26.5392C201.062 26.3143 201.145 26.0561 201.145 25.7646ZM220.971 14.4211L216.024 29.5H212.039L218.797 11.3104H221.333L220.971 14.4211ZM225.081 29.5L220.122 14.4211L219.722 11.3104H222.283L229.079 29.5H225.081ZM224.856 22.7289V25.6647H215.249V22.7289H224.856ZM237.849 23.0162H233.214V20.0929H237.849C238.565 20.0929 239.148 19.9763 239.598 19.7431C240.048 19.5016 240.377 19.1684 240.585 18.7437C240.793 18.3189 240.897 17.84 240.897 17.307C240.897 16.7656 240.793 16.2618 240.585 15.7954C240.377 15.329 240.048 14.9542 239.598 14.671C239.148 14.3878 238.565 14.2462 237.849 14.2462H234.513V29.5H230.766V11.3104H237.849C239.273 11.3104 240.493 11.5686 241.509 12.085C242.534 12.593 243.317 13.2968 243.858 14.1963C244.399 15.0958 244.67 16.1243 244.67 17.282C244.67 18.4563 244.399 19.4724 243.858 20.3303C243.317 21.1881 242.534 21.8502 241.509 22.3166C240.493 22.783 239.273 23.0162 237.849 23.0162ZM254.34 23.0162H249.705V20.0929H254.34C255.056 20.0929 255.639 19.9763 256.089 19.7431C256.538 19.5016 256.867 19.1684 257.075 18.7437C257.284 18.3189 257.388 17.84 257.388 17.307C257.388 16.7656 257.284 16.2618 257.075 15.7954C256.867 15.329 256.538 14.9542 256.089 14.671C255.639 14.3878 255.056 14.2462 254.34 14.2462H251.004V29.5H247.256V11.3104H254.34C255.764 11.3104 256.984 11.5686 258 12.085C259.024 12.593 259.807 13.2968 260.349 14.1963C260.89 15.0958 261.161 16.1243 261.161 17.282C261.161 18.4563 260.89 19.4724 260.349 20.3303C259.807 21.1881 259.024 21.8502 258 22.3166C256.984 22.783 255.764 23.0162 254.34 23.0162Z" fill="#E1E1E6"/>
</svg>
